<?xml version="1.0" encoding="UTF-8" standalone="no" ?>
<!DOCTYPE svg PUBLIC "-//W3C//DTD SVG 1.1//EN" "http://www.w3.org/Graphics/SVG/1.1/DTD/svg11.dtd">
<svg xmlns="http://www.w3.org/2000/svg" xmlns:xlink="http://www.w3.org/1999/xlink" version="1.1" width="500" height="500" viewBox="0 0 500 500" xml:space="preserve">
<desc>Created with Fabric.js 3.6.3</desc>
<defs>
</defs>
<g transform="matrix(1 0 0 1 194.49169718537985 250)" style=""  ><path fill="#000000" opacity="1" d="M-144.95-26.24L-144.95 14.56L-104.15 14.56L-104.15 21.36L-151.75 21.36L-151.75-26.24L-144.95-26.24Z"/></g><g transform="matrix(1.2576690767268979 0 0 1.2576690767268979 157.2183068460694 246.10079233808068)"  >
<linearGradient id="SVGID_22190" gradientUnits="userSpaceOnUse" gradientTransform="matrix(1 0 0 1 0.4000000000000057 26.399999999999995)"  x1="0" y1="0" x2="99.3" y2="47.20000000000001">
<stop offset="0%" style="stop-color:rgb(0,221,255);stop-opacity: 1"/>
<stop offset="100%" style="stop-color:rgb(255,0,212);stop-opacity: 1"/>
</linearGradient>
<path style="stroke: none; stroke-width: 0; stroke-dasharray: none; stroke-linecap: butt; stroke-dashoffset: 0; stroke-linejoin: miter; stroke-miterlimit: 4; fill: url(#SVGID_22190); fill-rule: nonzero; opacity: 1;"  transform=" translate(-50.050000000000004, -50)" d="M 99.7 50 c 0 3.1 -0.6 6.1 -1.7 8.9 c -1.2 2.9 -2.9 5.6 -5.2 7.8 c -2.3 2.3 -4.9 4 -7.8 5.2 c -2.8 1.2 -5.8 1.7 -8.9 1.7 c -3.1 0 -6.1 -0.6 -8.9 -1.7 c -2.9 -1.2 -5.6 -2.9 -7.8 -5.2 L 42.5 50 l 0 0 l -9.2 -9.2 C 30.8 38.3 27.5 37 24 37 s -6.8 1.4 -9.2 3.8 C 12.3 43.2 11 46.5 11 50 s 1.4 6.8 3.8 9.2 c 2.5 2.5 5.7 3.8 9.2 3.8 s 6.8 -1.4 9.2 -3.8 l 1.6 -1.6 l 7.5 7.5 l -1.6 1.6 c -2.3 2.3 -4.9 4 -7.8 5.2 c -2.8 1.2 -5.8 1.7 -8.9 1.7 s -6.1 -0.6 -8.9 -1.7 c -2.9 -1.2 -5.6 -2.9 -7.8 -5.2 c -2.3 -2.3 -4 -4.9 -5.2 -7.8 c -1.2 -2.8 -1.7 -5.8 -1.7 -8.9 s 0.6 -6.1 1.7 -8.9 c 1.2 -2.9 2.9 -5.6 5.2 -7.8 c 2.3 -2.3 4.9 -4 7.8 -5.2 c 2.8 -1.2 5.8 -1.7 8.9 -1.7 s 6.1 0.6 8.9 1.7 c 2.9 1.2 5.6 2.9 7.8 5.2 L 63 55.5 v 0 l 3.7 3.7 c 2.5 2.5 5.7 3.8 9.2 3.8 c 3.5 0 6.8 -1.4 9.2 -3.8 c 2.5 -2.5 3.8 -5.7 3.8 -9.2 s -1.4 -6.8 -3.8 -9.2 C 82.7 38.3 79.5 37 76 37 c -3.5 0 -6.8 1.4 -9.2 3.8 l -1.9 1.9 l -7.5 -7.5 l 1.9 -1.9 c 2.3 -2.3 4.9 -4 7.8 -5.2 c 2.8 -1.2 5.8 -1.7 8.9 -1.7 c 3.1 0 6.1 0.6 8.9 1.7 c 2.9 1.2 5.6 2.9 7.8 5.2 c 2.3 2.3 4 4.9 5.2 7.8 C 99.1 43.9 99.7 46.9 99.7 50 z" stroke-linecap="round" />
</g>
<g transform="matrix(1 0 0 1 346.892955937491 250)" style=""  ><path fill="#000000" opacity="1" d="M-73.78-5.84L-73.78-12.64Q-73.78-15.49-75.75-17.47Q-77.72-19.44-80.58-19.44L-80.58-19.44L-107.78-19.44L-107.78 0.96L-80.58 0.96Q-77.72 0.96-75.75-1.01Q-73.78-2.98-73.78-5.84L-73.78-5.84ZM-66.98-12.64L-66.98-5.84Q-66.98-3.12-68.03-0.67Q-69.09 1.78-70.92 3.65Q-72.76 5.52-75.24 6.64Q-77.72 7.76-80.58 7.76L-80.58 7.76L-107.78 7.76L-107.78 21.36L-114.58 21.36L-114.58-26.24L-80.58-26.24Q-77.86-26.24-75.41-25.18Q-72.96-24.13-71.13-22.29Q-69.29-20.46-68.17-17.98Q-67.05-15.49-66.98-12.64L-66.98-12.64Z"/><path fill="#000000" opacity="1" d="M-34.34 15.38L-54.74-14.07L-54.74 21.36L-61.54 21.36L-61.54-26.24L-54.74-26.24L-34.34 3.21L-13.94-26.24L-7.14-26.24L-7.14 21.36L-13.94 21.36L-13.94-14.07L-34.34 15.38Z"/><path fill="#000000" opacity="1" d="M-0.34 21.36L-0.34-26.24L6.46-26.24L6.46 21.36L-0.34 21.36Z"/><path fill="#000000" opacity="1" d="M60.86-26.24L60.86 21.36L54.06 21.36L20.06-15.22L20.06 21.36L13.26 21.36L13.26-26.24L20.06-26.24L54.06 9.80L54.06-26.24L60.86-26.24Z"/><path fill="#000000" opacity="1" d="M108.46 7.76L108.46-12.64Q108.46-15.49 106.49-17.47Q104.52-19.44 101.66-19.44L101.66-19.44L74.46-19.44L74.46 14.56L101.66 14.56Q104.52 14.56 106.49 12.59Q108.46 10.62 108.46 7.76L108.46 7.76ZM115.26-12.64L115.26 7.76Q115.26 10.48 114.21 12.93Q113.15 15.38 111.32 17.25Q109.48 19.12 107.00 20.24Q104.52 21.36 101.66 21.36L101.66 21.36L67.66 21.36L67.66-26.24L101.66-26.24Q104.38-26.24 106.83-25.18Q109.28-24.13 111.11-22.29Q112.95-20.46 114.07-17.98Q115.19-15.49 115.26-12.64L115.26-12.64Z"/></g></svg>